# xmcd
#
# Track frame offsets: 
#        150
#        9765
#        26460
#        38090
#        54350
#        66892
#        77817
#        96735
#        108052
#        116757
#        126950
#        135455
#        146652
#
# Disc length: 2247 seconds
#
# Revision: 3
# Processed by: cddbd v1.5.2PL0 Copyright (c) Steve Scherf et al.
# Submitted via: ExactAudioCopy v0.95b3
#
DISCID=a908c50d
DTITLE=Earl Hooker - Play Your Guitar, Mr. Hooker!
DYEAR=1985
DGENRE=
TTITLE0=Swear To Tell the Truth
TTITLE1=You Took All My Love
TTITLE2=All Your Love
TTITLE3=Everything Gonna Be Alright
TTITLE4=Frosty
TTITLE5=The Misfit (Got to Keep Movin')
TTITLE6=Earl Hooker Blues
TTITLE7=Reconsider Baby
TTITLE8=Hot and Heavy (alt. take)
TTITLE9=She's Fine
TTITLE10=Dynamite
TTITLE11=Hello Baby
TTITLE12=Dust My Broom
EXTD=
EXTT0=
EXTT1=
EXTT2=
EXTT3=
EXTT4=
EXTT5=
EXTT6=
EXTT7=
EXTT8=
EXTT9=
EXTT10=
EXTT11=
EXTT12=
PLAYORDER=
